solid Untitled-60d5b0bb
facet normal -0.8910065241883715 0.45399049973953987 0.0
  outer loop
    vertex 19.512015399175034 -31.00474268569376 15.999999999999998
    vertex 19.369975877254827 -31.28351094361129 0.0
    vertex 19.369975877254827 -31.28351094361129 15.999999999999998
  endloop
endfacet
facet normal -0.8910065241883715 0.45399049973953987 0.0
  outer loop
    vertex 19.369975877254827 -31.28351094361129 0.0
    vertex 19.512015399175034 -31.00474268569376 15.999999999999998
    vertex 19.512015399175034 -31.00474268569376 0.0
  endloop
endfacet
facet normal 0.0 -1.0 0.0
  outer loop
    vertex 22.32103239354998 -11.592527937986233 15.999999999999998
    vertex 19.32103239354998 -11.592527937986233 0.0
    vertex 22.32103239354998 -11.592527937986233 0.0
  endloop
endfacet
facet normal 0.0 -1.0 0.0
  outer loop
    vertex 19.32103239354998 -11.592527937986233 0.0
    vertex 22.32103239354998 -11.592527937986233 15.999999999999998
    vertex 19.32103239354998 -11.592527937986233 15.999999999999998
  endloop
endfacet
facet normal -0.7071067811865476 0.7071067811865476 0.0
  outer loop
    vertex 19.733247141257507 -30.783510943611283 15.999999999999998
    vertex 19.512015399175034 -31.00474268569376 0.0
    vertex 19.512015399175034 -31.00474268569376 15.999999999999998
  endloop
endfacet
facet normal -0.7071067811865476 0.7071067811865476 0.0
  outer loop
    vertex 19.512015399175034 -31.00474268569376 0.0
    vertex 19.733247141257507 -30.783510943611283 15.999999999999998
    vertex 19.733247141257507 -30.783510943611283 0.0
  endloop
endfacet
facet normal -1.0 0.0 0.0
  outer loop
    vertex 19.32103239354998 -8.592527937986233 15.999999999999998
    vertex 19.32103239354998 -11.592527937986233 0.0
    vertex 19.32103239354998 -11.592527937986233 15.999999999999998
  endloop
endfacet
facet normal -1.0 0.0 0.0
  outer loop
    vertex 19.32103239354998 -11.592527937986233 0.0
    vertex 19.32103239354998 -8.592527937986233 15.999999999999998
    vertex 19.32103239354998 -8.592527937986233 0.0
  endloop
endfacet
facet normal -1.0 0.0 0.0
  outer loop
    vertex 14.321032393549983 -6.592527937986231 15.999999999999998
    vertex 14.321032393549983 -8.592527937986233 0.0
    vertex 14.321032393549983 -8.592527937986233 15.999999999999998
  endloop
endfacet
facet normal -1.0 0.0 0.0
  outer loop
    vertex 14.321032393549983 -8.592527937986233 0.0
    vertex 14.321032393549983 -6.592527937986231 15.999999999999998
    vertex 14.321032393549983 -6.592527937986231 0.0
  endloop
endfacet
facet normal 1.0 0.0 0.0
  outer loop
    vertex 20.321032393549984 -30.592527937986233 0.0
    vertex 20.321032393549984 -31.592527937986237 15.999999999999998
    vertex 20.321032393549984 -31.592527937986237 0.0
  endloop
endfacet
facet normal 1.0 0.0 0.0
  outer loop
    vertex 20.321032393549984 -31.592527937986237 15.999999999999998
    vertex 20.321032393549984 -30.592527937986233 0.0
    vertex 20.321032393549984 -30.592527937986233 15.999999999999998
  endloop
endfacet
facet normal -0.45399049973955075 -0.891006524188366 0.0
  outer loop
    vertex 15.012015399175036 -9.543584454281389 15.999999999999998
    vertex 14.73324714125751 -9.40154493236118 0.0
    vertex 15.012015399175036 -9.543584454281389 0.0
  endloop
endfacet
facet normal -0.45399049973955075 -0.891006524188366 0.0
  outer loop
    vertex 14.73324714125751 -9.40154493236118 0.0
    vertex 15.012015399175036 -9.543584454281389 15.999999999999998
    vertex 14.73324714125751 -9.40154493236118 15.999999999999998
  endloop
endfacet
facet normal -0.15643446504023956 0.9876883405951363 0.0
  outer loop
    vertex 20.012015399175034 -30.641471421691083 15.999999999999998
    vertex 20.321032393549984 -30.592527937986233 0.0
    vertex 20.012015399175034 -30.641471421691083 0.0
  endloop
endfacet
facet normal -0.15643446504023956 0.9876883405951363 0.0
  outer loop
    vertex 20.321032393549984 -30.592527937986233 0.0
    vertex 20.012015399175034 -30.641471421691083 15.999999999999998
    vertex 20.321032393549984 -30.592527937986233 15.999999999999998
  endloop
endfacet
facet normal -0.4539904997395364 0.8910065241883731 0.0
  outer loop
    vertex 19.733247141257507 -30.783510943611283 15.999999999999998
    vertex 20.012015399175034 -30.641471421691083 0.0
    vertex 19.733247141257507 -30.783510943611283 0.0
  endloop
endfacet
facet normal -0.4539904997395364 0.8910065241883731 0.0
  outer loop
    vertex 20.012015399175034 -30.641471421691083 0.0
    vertex 19.733247141257507 -30.783510943611283 15.999999999999998
    vertex 20.012015399175034 -30.641471421691083 15.999999999999998
  endloop
endfacet
facet normal 0.0 -1.0 0.0
  outer loop
    vertex 24.32103239354998 -33.59252793798623 15.999999999999998
    vertex 19.32103239354998 -33.59252793798623 0.0
    vertex 24.32103239354998 -33.59252793798623 0.0
  endloop
endfacet
facet normal 0.0 -1.0 0.0
  outer loop
    vertex 19.32103239354998 -33.59252793798623 0.0
    vertex 24.32103239354998 -33.59252793798623 15.999999999999998
    vertex 19.32103239354998 -33.59252793798623 15.999999999999998
  endloop
endfacet
facet normal 0.0 -1.0 0.0
  outer loop
    vertex 19.32103239354998 -8.592527937986233 15.999999999999998
    vertex 15.345292255922573 -8.592527937986233 0.0
    vertex 19.32103239354998 -8.592527937986233 0.0
  endloop
endfacet
facet normal 0.0 -1.0 0.0
  outer loop
    vertex 15.345292255922573 -8.592527937986233 0.0
    vertex 19.32103239354998 -8.592527937986233 15.999999999999998
    vertex 15.345292255922573 -8.592527937986233 15.999999999999998
  endloop
endfacet
facet normal 1.0 0.0 0.0
  outer loop
    vertex 15.345292255922573 -8.592527937986233 0.0
    vertex 15.345292255922573 -9.592527937986235 15.999999999999998
    vertex 15.345292255922573 -9.592527937986235 0.0
  endloop
endfacet
facet normal 1.0 0.0 0.0
  outer loop
    vertex 15.345292255922573 -9.592527937986235 15.999999999999998
    vertex 15.345292255922573 -8.592527937986233 0.0
    vertex 15.345292255922573 -8.592527937986233 15.999999999999998
  endloop
endfacet
facet normal 0.0 0.0 -1.0
  outer loop
    vertex 24.32103239354998 -6.592527937986231 0.0
    vertex 14.321032393549983 -8.592527937986233 0.0
    vertex 14.321032393549983 -6.592527937986231 0.0
  endloop
endfacet
facet normal 0.0 0.0 -1.0
  outer loop
    vertex 14.321032393549983 -8.592527937986233 0.0
    vertex 24.32103239354998 -6.592527937986231 0.0
    vertex 15.345292255922573 -8.592527937986233 0.0
  endloop
endfacet
facet normal 0.0 0.0 -1.0
  outer loop
    vertex 14.321032393549983 -8.592527937986233 0.0
    vertex 15.345292255922573 -8.592527937986233 0.0
    vertex 14.369975877254829 -8.901544932361181 0.0
  endloop
endfacet
facet normal 0.0 0.0 -1.0
  outer loop
    vertex 14.369975877254829 -8.901544932361181 0.0
    vertex 15.345292255922573 -8.592527937986233 0.0
    vertex 14.512015399175034 -9.180313190278708 0.0
  endloop
endfacet
facet normal 0.0 0.0 -1.0
  outer loop
    vertex 14.512015399175034 -9.180313190278708 0.0
    vertex 15.345292255922573 -8.592527937986233 0.0
    vertex 14.73324714125751 -9.40154493236118 0.0
  endloop
endfacet
facet normal 0.0 0.0 -1.0
  outer loop
    vertex 14.73324714125751 -9.40154493236118 0.0
    vertex 15.345292255922573 -8.592527937986233 0.0
    vertex 15.012015399175036 -9.543584454281389 0.0
  endloop
endfacet
facet normal 0.0 0.0 -1.0
  outer loop
    vertex 15.345292255922573 -8.592527937986233 0.0
    vertex 24.32103239354998 -6.592527937986231 0.0
    vertex 19.32103239354998 -8.592527937986233 0.0
  endloop
endfacet
facet normal 0.0 0.0 -1.0
  outer loop
    vertex 19.32103239354998 -8.592527937986233 0.0
    vertex 24.32103239354998 -6.592527937986231 0.0
    vertex 19.32103239354998 -11.592527937986233 0.0
  endloop
endfacet
facet normal 0.0 0.0 -1.0
  outer loop
    vertex 19.32103239354998 -11.592527937986233 0.0
    vertex 24.32103239354998 -6.592527937986231 0.0
    vertex 22.32103239354998 -11.592527937986233 0.0
  endloop
endfacet
facet normal 0.0 0.0 -1.0
  outer loop
    vertex 22.32103239354998 -11.592527937986233 0.0
    vertex 24.32103239354998 -6.592527937986231 0.0
    vertex 22.32103239354998 -31.592527937986237 0.0
  endloop
endfacet
facet normal 0.0 0.0 -1.0
  outer loop
    vertex 19.369975877254827 -31.28351094361129 0.0
    vertex 19.32103239354998 -33.59252793798623 0.0
    vertex 19.32103239354998 -31.592527937986237 0.0
  endloop
endfacet
facet normal 0.0 0.0 -1.0
  outer loop
    vertex 19.32103239354998 -33.59252793798623 0.0
    vertex 19.369975877254827 -31.28351094361129 0.0
    vertex 24.32103239354998 -33.59252793798623 0.0
  endloop
endfacet
facet normal 0.0 0.0 -1.0
  outer loop
    vertex 24.32103239354998 -33.59252793798623 0.0
    vertex 19.369975877254827 -31.28351094361129 0.0
    vertex 20.321032393549984 -31.592527937986237 0.0
  endloop
endfacet
facet normal 0.0 0.0 -1.0
  outer loop
    vertex 20.321032393549984 -31.592527937986237 0.0
    vertex 19.369975877254827 -31.28351094361129 0.0
    vertex 19.512015399175034 -31.00474268569376 0.0
  endloop
endfacet
facet normal 0.0 0.0 -1.0
  outer loop
    vertex 20.321032393549984 -31.592527937986237 0.0
    vertex 19.512015399175034 -31.00474268569376 0.0
    vertex 19.733247141257507 -30.783510943611283 0.0
  endloop
endfacet
facet normal 0.0 0.0 -1.0
  outer loop
    vertex 20.321032393549984 -31.592527937986237 0.0
    vertex 19.733247141257507 -30.783510943611283 0.0
    vertex 20.012015399175034 -30.641471421691083 0.0
  endloop
endfacet
facet normal 0.0 0.0 -1.0
  outer loop
    vertex 20.321032393549984 -31.592527937986237 0.0
    vertex 20.012015399175034 -30.641471421691083 0.0
    vertex 20.321032393549984 -30.592527937986233 0.0
  endloop
endfacet
facet normal 0.0 0.0 -1.0
  outer loop
    vertex 24.32103239354998 -33.59252793798623 0.0
    vertex 20.321032393549984 -31.592527937986237 0.0
    vertex 22.32103239354998 -31.592527937986237 0.0
  endloop
endfacet
facet normal 0.0 0.0 -1.0
  outer loop
    vertex 24.32103239354998 -33.59252793798623 0.0
    vertex 22.32103239354998 -31.592527937986237 0.0
    vertex 24.32103239354998 -6.592527937986231 0.0
  endloop
endfacet
facet normal 0.0 0.0 -1.0
  outer loop
    vertex 15.345292255922573 -9.592527937986235 0.0
    vertex 15.012015399175036 -9.543584454281389 0.0
    vertex 15.345292255922573 -8.592527937986233 0.0
  endloop
endfacet
facet normal -1.0 0.0 0.0
  outer loop
    vertex 19.32103239354998 -31.592527937986237 15.999999999999998
    vertex 19.32103239354998 -33.59252793798623 0.0
    vertex 19.32103239354998 -33.59252793798623 15.999999999999998
  endloop
endfacet
facet normal -1.0 0.0 0.0
  outer loop
    vertex 19.32103239354998 -33.59252793798623 0.0
    vertex 19.32103239354998 -31.592527937986237 15.999999999999998
    vertex 19.32103239354998 -31.592527937986237 0.0
  endloop
endfacet
facet normal -0.8910065241883697 -0.45399049973954353 0.0
  outer loop
    vertex 14.369975877254829 -8.901544932361181 15.999999999999998
    vertex 14.512015399175034 -9.180313190278708 0.0
    vertex 14.512015399175034 -9.180313190278708 15.999999999999998
  endloop
endfacet
facet normal -0.8910065241883697 -0.45399049973954353 0.0
  outer loop
    vertex 14.512015399175034 -9.180313190278708 0.0
    vertex 14.369975877254829 -8.901544932361181 15.999999999999998
    vertex 14.369975877254829 -8.901544932361181 0.0
  endloop
endfacet
facet normal 1.0 0.0 0.0
  outer loop
    vertex 24.32103239354998 -6.592527937986231 0.0
    vertex 24.32103239354998 -33.59252793798623 15.999999999999998
    vertex 24.32103239354998 -33.59252793798623 0.0
  endloop
endfacet
facet normal 1.0 0.0 0.0
  outer loop
    vertex 24.32103239354998 -33.59252793798623 15.999999999999998
    vertex 24.32103239354998 -6.592527937986231 0.0
    vertex 24.32103239354998 -6.592527937986231 15.999999999999998
  endloop
endfacet
facet normal 0.0 1.0 0.0
  outer loop
    vertex 14.321032393549983 -6.592527937986231 15.999999999999998
    vertex 24.32103239354998 -6.592527937986231 0.0
    vertex 14.321032393549983 -6.592527937986231 0.0
  endloop
endfacet
facet normal 0.0 1.0 0.0
  outer loop
    vertex 24.32103239354998 -6.592527937986231 0.0
    vertex 14.321032393549983 -6.592527937986231 15.999999999999998
    vertex 24.32103239354998 -6.592527937986231 15.999999999999998
  endloop
endfacet
facet normal 0.0 1.0 0.0
  outer loop
    vertex 20.321032393549984 -31.592527937986237 15.999999999999998
    vertex 22.32103239354998 -31.592527937986237 0.0
    vertex 20.321032393549984 -31.592527937986237 0.0
  endloop
endfacet
facet normal 0.0 1.0 0.0
  outer loop
    vertex 22.32103239354998 -31.592527937986237 0.0
    vertex 20.321032393549984 -31.592527937986237 15.999999999999998
    vertex 22.32103239354998 -31.592527937986237 15.999999999999998
  endloop
endfacet
facet normal -0.707106781186543 -0.7071067811865521 0.0
  outer loop
    vertex 14.73324714125751 -9.40154493236118 15.999999999999998
    vertex 14.512015399175034 -9.180313190278708 0.0
    vertex 14.73324714125751 -9.40154493236118 0.0
  endloop
endfacet
facet normal -0.707106781186543 -0.7071067811865521 0.0
  outer loop
    vertex 14.512015399175034 -9.180313190278708 0.0
    vertex 14.73324714125751 -9.40154493236118 15.999999999999998
    vertex 14.512015399175034 -9.180313190278708 15.999999999999998
  endloop
endfacet
facet normal -0.9876883405951378 0.15643446504023079 0.0
  outer loop
    vertex 19.369975877254827 -31.28351094361129 15.999999999999998
    vertex 19.32103239354998 -31.592527937986237 0.0
    vertex 19.32103239354998 -31.592527937986237 15.999999999999998
  endloop
endfacet
facet normal -0.9876883405951378 0.15643446504023079 0.0
  outer loop
    vertex 19.32103239354998 -31.592527937986237 0.0
    vertex 19.369975877254827 -31.28351094361129 15.999999999999998
    vertex 19.369975877254827 -31.28351094361129 0.0
  endloop
endfacet
facet normal -0.9876883405951378 -0.15643446504023079 0.0
  outer loop
    vertex 14.321032393549983 -8.592527937986233 15.999999999999998
    vertex 14.369975877254829 -8.901544932361181 0.0
    vertex 14.369975877254829 -8.901544932361181 15.999999999999998
  endloop
endfacet
facet normal -0.9876883405951378 -0.15643446504023079 0.0
  outer loop
    vertex 14.369975877254829 -8.901544932361181 0.0
    vertex 14.321032393549983 -8.592527937986233 15.999999999999998
    vertex 14.321032393549983 -8.592527937986233 0.0
  endloop
endfacet
facet normal -0.14529691816370108 -0.9893880965385276 0.0
  outer loop
    vertex 15.345292255922573 -9.592527937986235 15.999999999999998
    vertex 15.012015399175036 -9.543584454281389 0.0
    vertex 15.345292255922573 -9.592527937986235 0.0
  endloop
endfacet
facet normal -0.14529691816370108 -0.9893880965385276 0.0
  outer loop
    vertex 15.012015399175036 -9.543584454281389 0.0
    vertex 15.345292255922573 -9.592527937986235 15.999999999999998
    vertex 15.012015399175036 -9.543584454281389 15.999999999999998
  endloop
endfacet
facet normal 0.0 0.0 1.0
  outer loop
    vertex 22.32103239354998 -11.592527937986233 15.999999999999998
    vertex 19.32103239354998 -8.592527937986233 15.999999999999998
    vertex 19.32103239354998 -11.592527937986233 15.999999999999998
  endloop
endfacet
facet normal 0.0 0.0 1.0
  outer loop
    vertex 20.321032393549984 -30.592527937986233 15.999999999999998
    vertex 20.012015399175034 -30.641471421691083 15.999999999999998
    vertex 20.321032393549984 -31.592527937986237 15.999999999999998
  endloop
endfacet
facet normal 0.0 0.0 1.0
  outer loop
    vertex 24.32103239354998 -33.59252793798623 15.999999999999998
    vertex 19.32103239354998 -31.592527937986237 15.999999999999998
    vertex 19.32103239354998 -33.59252793798623 15.999999999999998
  endloop
endfacet
facet normal 0.0 0.0 1.0
  outer loop
    vertex 19.32103239354998 -31.592527937986237 15.999999999999998
    vertex 24.32103239354998 -33.59252793798623 15.999999999999998
    vertex 19.369975877254827 -31.28351094361129 15.999999999999998
  endloop
endfacet
facet normal 0.0 0.0 1.0
  outer loop
    vertex 19.369975877254827 -31.28351094361129 15.999999999999998
    vertex 24.32103239354998 -33.59252793798623 15.999999999999998
    vertex 20.321032393549984 -31.592527937986237 15.999999999999998
  endloop
endfacet
facet normal 0.0 0.0 1.0
  outer loop
    vertex 19.369975877254827 -31.28351094361129 15.999999999999998
    vertex 20.321032393549984 -31.592527937986237 15.999999999999998
    vertex 19.512015399175034 -31.00474268569376 15.999999999999998
  endloop
endfacet
facet normal 0.0 0.0 1.0
  outer loop
    vertex 19.512015399175034 -31.00474268569376 15.999999999999998
    vertex 20.321032393549984 -31.592527937986237 15.999999999999998
    vertex 19.733247141257507 -30.783510943611283 15.999999999999998
  endloop
endfacet
facet normal 0.0 0.0 1.0
  outer loop
    vertex 19.733247141257507 -30.783510943611283 15.999999999999998
    vertex 20.321032393549984 -31.592527937986237 15.999999999999998
    vertex 20.012015399175034 -30.641471421691083 15.999999999999998
  endloop
endfacet
facet normal 0.0 0.0 1.0
  outer loop
    vertex 20.321032393549984 -31.592527937986237 15.999999999999998
    vertex 24.32103239354998 -33.59252793798623 15.999999999999998
    vertex 22.32103239354998 -31.592527937986237 15.999999999999998
  endloop
endfacet
facet normal 0.0 0.0 1.0
  outer loop
    vertex 22.32103239354998 -31.592527937986237 15.999999999999998
    vertex 24.32103239354998 -33.59252793798623 15.999999999999998
    vertex 22.32103239354998 -11.592527937986233 15.999999999999998
  endloop
endfacet
facet normal 0.0 0.0 1.0
  outer loop
    vertex 14.369975877254829 -8.901544932361181 15.999999999999998
    vertex 14.321032393549983 -6.592527937986231 15.999999999999998
    vertex 14.321032393549983 -8.592527937986233 15.999999999999998
  endloop
endfacet
facet normal 0.0 0.0 1.0
  outer loop
    vertex 14.321032393549983 -6.592527937986231 15.999999999999998
    vertex 14.369975877254829 -8.901544932361181 15.999999999999998
    vertex 15.345292255922573 -8.592527937986233 15.999999999999998
  endloop
endfacet
facet normal 0.0 0.0 1.0
  outer loop
    vertex 14.321032393549983 -6.592527937986231 15.999999999999998
    vertex 15.345292255922573 -8.592527937986233 15.999999999999998
    vertex 24.32103239354998 -6.592527937986231 15.999999999999998
  endloop
endfacet
facet normal 0.0 0.0 1.0
  outer loop
    vertex 15.345292255922573 -8.592527937986233 15.999999999999998
    vertex 14.369975877254829 -8.901544932361181 15.999999999999998
    vertex 14.512015399175034 -9.180313190278708 15.999999999999998
  endloop
endfacet
facet normal 0.0 0.0 1.0
  outer loop
    vertex 15.345292255922573 -8.592527937986233 15.999999999999998
    vertex 14.512015399175034 -9.180313190278708 15.999999999999998
    vertex 14.73324714125751 -9.40154493236118 15.999999999999998
  endloop
endfacet
facet normal 0.0 0.0 1.0
  outer loop
    vertex 15.345292255922573 -8.592527937986233 15.999999999999998
    vertex 14.73324714125751 -9.40154493236118 15.999999999999998
    vertex 15.012015399175036 -9.543584454281389 15.999999999999998
  endloop
endfacet
facet normal 0.0 0.0 1.0
  outer loop
    vertex 15.345292255922573 -8.592527937986233 15.999999999999998
    vertex 15.012015399175036 -9.543584454281389 15.999999999999998
    vertex 15.345292255922573 -9.592527937986235 15.999999999999998
  endloop
endfacet
facet normal 0.0 0.0 1.0
  outer loop
    vertex 24.32103239354998 -6.592527937986231 15.999999999999998
    vertex 15.345292255922573 -8.592527937986233 15.999999999999998
    vertex 19.32103239354998 -8.592527937986233 15.999999999999998
  endloop
endfacet
facet normal 0.0 0.0 1.0
  outer loop
    vertex 24.32103239354998 -6.592527937986231 15.999999999999998
    vertex 19.32103239354998 -8.592527937986233 15.999999999999998
    vertex 22.32103239354998 -11.592527937986233 15.999999999999998
  endloop
endfacet
facet normal 0.0 0.0 1.0
  outer loop
    vertex 24.32103239354998 -6.592527937986231 15.999999999999998
    vertex 22.32103239354998 -11.592527937986233 15.999999999999998
    vertex 24.32103239354998 -33.59252793798623 15.999999999999998
  endloop
endfacet
facet normal -1.0 0.0 0.0
  outer loop
    vertex 22.32103239354998 -11.592527937986233 15.999999999999998
    vertex 22.32103239354998 -31.592527937986237 0.0
    vertex 22.32103239354998 -31.592527937986237 15.999999999999998
  endloop
endfacet
facet normal -1.0 0.0 0.0
  outer loop
    vertex 22.32103239354998 -31.592527937986237 0.0
    vertex 22.32103239354998 -11.592527937986233 15.999999999999998
    vertex 22.32103239354998 -11.592527937986233 0.0
  endloop
endfacet
endsolid Untitled-60d5b0bb
