solid Untitled-60d5a771
facet normal -1.0 0.0 0.0
  outer loop
    vertex 6.0 9.0 15.999999999999998
    vertex 6.0 -0.9999999999999999 0.0
    vertex 6.0 -0.9999999999999999 15.999999999999998
  endloop
endfacet
facet normal -1.0 0.0 0.0
  outer loop
    vertex 6.0 -0.9999999999999999 0.0
    vertex 6.0 9.0 15.999999999999998
    vertex 6.0 9.0 0.0
  endloop
endfacet
facet normal -1.0 0.0 0.0
  outer loop
    vertex 0.0 14.000000000000002 15.999999999999998
    vertex 0.0 12.0 0.0
    vertex 0.0 12.0 15.999999999999998
  endloop
endfacet
facet normal -1.0 0.0 0.0
  outer loop
    vertex 0.0 12.0 0.0
    vertex 0.0 14.000000000000002 15.999999999999998
    vertex 0.0 14.000000000000002 0.0
  endloop
endfacet
facet normal 0.0 1.0 0.0
  outer loop
    vertex 0.0 14.000000000000002 15.999999999999998
    vertex 7.999999999999999 14.000000000000002 0.0
    vertex 0.0 14.000000000000002 0.0
  endloop
endfacet
facet normal 0.0 1.0 0.0
  outer loop
    vertex 7.999999999999999 14.000000000000002 0.0
    vertex 0.0 14.000000000000002 15.999999999999998
    vertex 7.999999999999999 14.000000000000002 15.999999999999998
  endloop
endfacet
facet normal 1.0 0.0 0.0
  outer loop
    vertex 7.999999999999999 14.000000000000002 0.0
    vertex 7.999999999999999 -3.0 15.999999999999998
    vertex 7.999999999999999 -3.0 0.0
  endloop
endfacet
facet normal 1.0 0.0 0.0
  outer loop
    vertex 7.999999999999999 -3.0 15.999999999999998
    vertex 7.999999999999999 14.000000000000002 0.0
    vertex 7.999999999999999 14.000000000000002 15.999999999999998
  endloop
endfacet
facet normal -0.0 -1.0 -0.0
  outer loop
    vertex 7.999999999999999 -3.0 15.999999999999998
    vertex 0.0 -3.0 0.0
    vertex 7.999999999999999 -3.0 0.0
  endloop
endfacet
facet normal -0.0 -1.0 -0.0
  outer loop
    vertex 0.0 -3.0 0.0
    vertex 7.999999999999999 -3.0 15.999999999999998
    vertex 0.0 -3.0 15.999999999999998
  endloop
endfacet
facet normal 0.0 -1.0 0.0
  outer loop
    vertex 5.000000000000001 12.0 15.999999999999998
    vertex 1.0242598623725907 12.0 0.0
    vertex 5.000000000000001 12.0 0.0
  endloop
endfacet
facet normal 0.0 -1.0 0.0
  outer loop
    vertex 1.0242598623725907 12.0 0.0
    vertex 5.000000000000001 12.0 15.999999999999998
    vertex 1.0242598623725907 12.0 15.999999999999998
  endloop
endfacet
facet normal 1.0 0.0 0.0
  outer loop
    vertex 1.0242598623725907 12.0 0.0
    vertex 1.0242598623725907 11.0 15.999999999999998
    vertex 1.0242598623725907 11.0 0.0
  endloop
endfacet
facet normal 1.0 0.0 0.0
  outer loop
    vertex 1.0242598623725907 11.0 15.999999999999998
    vertex 1.0242598623725907 12.0 0.0
    vertex 1.0242598623725907 12.0 15.999999999999998
  endloop
endfacet
facet normal 0.0 1.0 0.0
  outer loop
    vertex 0.9999999999999996 -0.9999999999999999 15.999999999999998
    vertex 6.0 -0.9999999999999999 0.0
    vertex 0.9999999999999998 -0.9999999999999999 0.0
  endloop
endfacet
facet normal 0.0 1.0 0.0
  outer loop
    vertex 6.0 -0.9999999999999999 0.0
    vertex 0.9999999999999996 -0.9999999999999999 15.999999999999998
    vertex 6.0 -0.9999999999999999 15.999999999999998
  endloop
endfacet
facet normal 1.0 0.0 1.1015494072452724e-17
  outer loop
    vertex 0.9999999999999998 0.0 0.0
    vertex 0.9999999999999996 -0.9999999999999999 15.999999999999998
    vertex 0.9999999999999998 -0.9999999999999999 0.0
  endloop
endfacet
facet normal 1.0 0.0 1.1015494072452724e-17
  outer loop
    vertex 0.9999999999999996 -0.9999999999999999 15.999999999999998
    vertex 0.9999999999999998 0.0 0.0
    vertex 0.9999999999999996 0.0 15.999999999999998
  endloop
endfacet
facet normal -0.8910065241883679 -0.4539904997395467 0.0
  outer loop
    vertex 0.04894348370484655 11.690983005625052 15.999999999999998
    vertex 0.1909830056250525 11.412214747707527 0.0
    vertex 0.1909830056250525 11.412214747707527 15.999999999999998
  endloop
endfacet
facet normal -0.8910065241883679 -0.4539904997395467 0.0
  outer loop
    vertex 0.1909830056250525 11.412214747707527 0.0
    vertex 0.04894348370484655 11.690983005625052 15.999999999999998
    vertex 0.04894348370484655 11.690983005625052 0.0
  endloop
endfacet
facet normal -0.4539904997395485 -0.891006524188367 0.0
  outer loop
    vertex 0.6909830056250525 11.048943483704846 15.999999999999998
    vertex 0.41221474770752686 11.190983005625053 0.0
    vertex 0.6909830056250525 11.048943483704846 0.0
  endloop
endfacet
facet normal -0.4539904997395485 -0.891006524188367 0.0
  outer loop
    vertex 0.41221474770752686 11.190983005625053 0.0
    vertex 0.6909830056250525 11.048943483704846 15.999999999999998
    vertex 0.41221474770752686 11.190983005625053 15.999999999999998
  endloop
endfacet
facet normal -0.9876883405951378 -0.1564344650402313 0.0
  outer loop
    vertex 0.0 12.0 15.999999999999998
    vertex 0.04894348370484655 11.690983005625052 0.0
    vertex 0.04894348370484655 11.690983005625052 15.999999999999998
  endloop
endfacet
facet normal -0.9876883405951378 -0.1564344650402313 0.0
  outer loop
    vertex 0.04894348370484655 11.690983005625052 0.0
    vertex 0.0 12.0 15.999999999999998
    vertex 0.0 12.0 0.0
  endloop
endfacet
facet normal -0.14529691816370058 -0.9893880965385278 0.0
  outer loop
    vertex 1.0242598623725907 11.0 15.999999999999998
    vertex 0.6909830056250525 11.048943483704846 0.0
    vertex 1.0242598623725907 11.0 0.0
  endloop
endfacet
facet normal -0.14529691816370058 -0.9893880965385278 0.0
  outer loop
    vertex 0.6909830056250525 11.048943483704846 0.0
    vertex 1.0242598623725907 11.0 15.999999999999998
    vertex 0.6909830056250525 11.048943483704846 15.999999999999998
  endloop
endfacet
facet normal -0.7071067811865466 -0.7071067811865485 0.0
  outer loop
    vertex 0.41221474770752686 11.190983005625053 15.999999999999998
    vertex 0.1909830056250525 11.412214747707527 0.0
    vertex 0.41221474770752686 11.190983005625053 0.0
  endloop
endfacet
facet normal -0.7071067811865466 -0.7071067811865485 0.0
  outer loop
    vertex 0.1909830056250525 11.412214747707527 0.0
    vertex 0.41221474770752686 11.190983005625053 15.999999999999998
    vertex 0.1909830056250525 11.412214747707527 15.999999999999998
  endloop
endfacet
facet normal -1.0 0.0 0.0
  outer loop
    vertex 0.0 -0.9999999999999999 15.999999999999998
    vertex 0.0 -3.0 0.0
    vertex 0.0 -3.0 15.999999999999998
  endloop
endfacet
facet normal -1.0 0.0 0.0
  outer loop
    vertex 0.0 -3.0 0.0
    vertex 0.0 -0.9999999999999999 15.999999999999998
    vertex 0.0 -0.9999999999999999 0.0
  endloop
endfacet
facet normal -0.9876883405951378 0.15643446504023129 0.0
  outer loop
    vertex 0.04894348370484655 -0.6909830056250525 15.999999999999998
    vertex 0.0 -0.9999999999999999 0.0
    vertex 0.0 -0.9999999999999999 15.999999999999998
  endloop
endfacet
facet normal -0.9876883405951378 0.15643446504023129 0.0
  outer loop
    vertex 0.0 -0.9999999999999999 0.0
    vertex 0.04894348370484655 -0.6909830056250525 15.999999999999998
    vertex 0.04894348370484655 -0.6909830056250525 0.0
  endloop
endfacet
facet normal -0.15643446504023137 0.9876883405951378 -8.54870199773452e-19
  outer loop
    vertex 0.6909830056250524 -0.04894348370484655 15.999999999999998
    vertex 0.9999999999999998 0.0 0.0
    vertex 0.6909830056250524 -0.04894348370484655 0.0
  endloop
endfacet
facet normal -0.15643446504023137 0.9876883405951378 -8.54870199773452e-19
  outer loop
    vertex 0.9999999999999998 0.0 0.0
    vertex 0.6909830056250524 -0.04894348370484655 15.999999999999998
    vertex 0.9999999999999996 0.0 15.999999999999998
  endloop
endfacet
facet normal -0.4539904997395464 0.8910065241883682 0.0
  outer loop
    vertex 0.41221474770752686 -0.1909830056250525 15.999999999999998
    vertex 0.6909830056250524 -0.04894348370484655 0.0
    vertex 0.41221474770752686 -0.1909830056250525 0.0
  endloop
endfacet
facet normal -0.4539904997395464 0.8910065241883682 0.0
  outer loop
    vertex 0.6909830056250524 -0.04894348370484655 0.0
    vertex 0.41221474770752686 -0.1909830056250525 15.999999999999998
    vertex 0.6909830056250524 -0.04894348370484655 15.999999999999998
  endloop
endfacet
facet normal -0.7071067811865476 0.7071067811865476 0.0
  outer loop
    vertex 0.41221474770752686 -0.1909830056250525 15.999999999999998
    vertex 0.1909830056250525 -0.41221474770752686 0.0
    vertex 0.1909830056250525 -0.41221474770752686 15.999999999999998
  endloop
endfacet
facet normal -0.7071067811865476 0.7071067811865476 0.0
  outer loop
    vertex 0.1909830056250525 -0.41221474770752686 0.0
    vertex 0.41221474770752686 -0.1909830056250525 15.999999999999998
    vertex 0.41221474770752686 -0.1909830056250525 0.0
  endloop
endfacet
facet normal -0.8910065241883682 0.45399049973954625 0.0
  outer loop
    vertex 0.1909830056250525 -0.41221474770752686 15.999999999999998
    vertex 0.04894348370484655 -0.6909830056250525 0.0
    vertex 0.04894348370484655 -0.6909830056250525 15.999999999999998
  endloop
endfacet
facet normal -0.8910065241883682 0.45399049973954625 0.0
  outer loop
    vertex 0.04894348370484655 -0.6909830056250525 0.0
    vertex 0.1909830056250525 -0.41221474770752686 15.999999999999998
    vertex 0.1909830056250525 -0.41221474770752686 0.0
  endloop
endfacet
facet normal 0.0 0.0 1.0
  outer loop
    vertex 0.9999999999999996 0.0 15.999999999999998
    vertex 0.6909830056250524 -0.04894348370484655 15.999999999999998
    vertex 0.9999999999999996 -0.9999999999999999 15.999999999999998
  endloop
endfacet
facet normal 0.0 0.0 1.0
  outer loop
    vertex 6.0 9.0 15.999999999999998
    vertex 5.000000000000001 12.0 15.999999999999998
    vertex 5.000000000000001 9.0 15.999999999999998
  endloop
endfacet
facet normal 0.0 0.0 1.0
  outer loop
    vertex 7.999999999999999 -3.0 15.999999999999998
    vertex 0.0 -0.9999999999999999 15.999999999999998
    vertex 0.0 -3.0 15.999999999999998
  endloop
endfacet
facet normal 0.0 0.0 1.0
  outer loop
    vertex 0.0 -0.9999999999999999 15.999999999999998
    vertex 7.999999999999999 -3.0 15.999999999999998
    vertex 0.9999999999999996 -0.9999999999999999 15.999999999999998
  endloop
endfacet
facet normal 0.0 0.0 1.0
  outer loop
    vertex 0.0 -0.9999999999999999 15.999999999999998
    vertex 0.9999999999999996 -0.9999999999999999 15.999999999999998
    vertex 0.04894348370484655 -0.6909830056250525 15.999999999999998
  endloop
endfacet
facet normal 0.0 0.0 1.0
  outer loop
    vertex 0.04894348370484655 -0.6909830056250525 15.999999999999998
    vertex 0.9999999999999996 -0.9999999999999999 15.999999999999998
    vertex 0.1909830056250525 -0.41221474770752686 15.999999999999998
  endloop
endfacet
facet normal 0.0 0.0 1.0
  outer loop
    vertex 0.1909830056250525 -0.41221474770752686 15.999999999999998
    vertex 0.9999999999999996 -0.9999999999999999 15.999999999999998
    vertex 0.41221474770752686 -0.1909830056250525 15.999999999999998
  endloop
endfacet
facet normal 0.0 0.0 1.0
  outer loop
    vertex 0.41221474770752686 -0.1909830056250525 15.999999999999998
    vertex 0.9999999999999996 -0.9999999999999999 15.999999999999998
    vertex 0.6909830056250524 -0.04894348370484655 15.999999999999998
  endloop
endfacet
facet normal 0.0 0.0 1.0
  outer loop
    vertex 0.9999999999999996 -0.9999999999999999 15.999999999999998
    vertex 7.999999999999999 -3.0 15.999999999999998
    vertex 6.0 -0.9999999999999999 15.999999999999998
  endloop
endfacet
facet normal 0.0 0.0 1.0
  outer loop
    vertex 6.0 -0.9999999999999999 15.999999999999998
    vertex 7.999999999999999 -3.0 15.999999999999998
    vertex 6.0 9.0 15.999999999999998
  endloop
endfacet
facet normal 0.0 0.0 1.0
  outer loop
    vertex 0.04894348370484655 11.690983005625052 15.999999999999998
    vertex 0.0 14.000000000000002 15.999999999999998
    vertex 0.0 12.0 15.999999999999998
  endloop
endfacet
facet normal 0.0 0.0 1.0
  outer loop
    vertex 0.0 14.000000000000002 15.999999999999998
    vertex 0.04894348370484655 11.690983005625052 15.999999999999998
    vertex 1.0242598623725907 12.0 15.999999999999998
  endloop
endfacet
facet normal 0.0 0.0 1.0
  outer loop
    vertex 0.0 14.000000000000002 15.999999999999998
    vertex 1.0242598623725907 12.0 15.999999999999998
    vertex 7.999999999999999 14.000000000000002 15.999999999999998
  endloop
endfacet
facet normal 0.0 0.0 1.0
  outer loop
    vertex 1.0242598623725907 12.0 15.999999999999998
    vertex 0.04894348370484655 11.690983005625052 15.999999999999998
    vertex 0.1909830056250525 11.412214747707527 15.999999999999998
  endloop
endfacet
facet normal 0.0 0.0 1.0
  outer loop
    vertex 1.0242598623725907 12.0 15.999999999999998
    vertex 0.1909830056250525 11.412214747707527 15.999999999999998
    vertex 0.41221474770752686 11.190983005625053 15.999999999999998
  endloop
endfacet
facet normal 0.0 0.0 1.0
  outer loop
    vertex 1.0242598623725907 12.0 15.999999999999998
    vertex 0.41221474770752686 11.190983005625053 15.999999999999998
    vertex 0.6909830056250525 11.048943483704846 15.999999999999998
  endloop
endfacet
facet normal 0.0 0.0 1.0
  outer loop
    vertex 1.0242598623725907 12.0 15.999999999999998
    vertex 0.6909830056250525 11.048943483704846 15.999999999999998
    vertex 1.0242598623725907 11.0 15.999999999999998
  endloop
endfacet
facet normal 0.0 0.0 1.0
  outer loop
    vertex 7.999999999999999 14.000000000000002 15.999999999999998
    vertex 1.0242598623725907 12.0 15.999999999999998
    vertex 5.000000000000001 12.0 15.999999999999998
  endloop
endfacet
facet normal 0.0 0.0 1.0
  outer loop
    vertex 7.999999999999999 14.000000000000002 15.999999999999998
    vertex 5.000000000000001 12.0 15.999999999999998
    vertex 6.0 9.0 15.999999999999998
  endloop
endfacet
facet normal 0.0 0.0 1.0
  outer loop
    vertex 7.999999999999999 14.000000000000002 15.999999999999998
    vertex 6.0 9.0 15.999999999999998
    vertex 7.999999999999999 -3.0 15.999999999999998
  endloop
endfacet
facet normal 0.0 0.0 -1.0
  outer loop
    vertex 7.999999999999999 14.000000000000002 0.0
    vertex 0.0 12.0 0.0
    vertex 0.0 14.000000000000002 0.0
  endloop
endfacet
facet normal 0.0 0.0 -1.0
  outer loop
    vertex 0.0 12.0 0.0
    vertex 7.999999999999999 14.000000000000002 0.0
    vertex 1.0242598623725907 12.0 0.0
  endloop
endfacet
facet normal 0.0 0.0 -1.0
  outer loop
    vertex 0.0 12.0 0.0
    vertex 1.0242598623725907 12.0 0.0
    vertex 0.04894348370484655 11.690983005625052 0.0
  endloop
endfacet
facet normal 0.0 0.0 -1.0
  outer loop
    vertex 0.04894348370484655 11.690983005625052 0.0
    vertex 1.0242598623725907 12.0 0.0
    vertex 0.1909830056250525 11.412214747707527 0.0
  endloop
endfacet
facet normal 0.0 0.0 -1.0
  outer loop
    vertex 0.1909830056250525 11.412214747707527 0.0
    vertex 1.0242598623725907 12.0 0.0
    vertex 0.41221474770752686 11.190983005625053 0.0
  endloop
endfacet
facet normal 0.0 0.0 -1.0
  outer loop
    vertex 0.41221474770752686 11.190983005625053 0.0
    vertex 1.0242598623725907 12.0 0.0
    vertex 0.6909830056250525 11.048943483704846 0.0
  endloop
endfacet
facet normal 0.0 0.0 -1.0
  outer loop
    vertex 1.0242598623725907 12.0 0.0
    vertex 7.999999999999999 14.000000000000002 0.0
    vertex 5.000000000000001 12.0 0.0
  endloop
endfacet
facet normal 0.0 0.0 -1.0
  outer loop
    vertex 5.000000000000001 12.0 0.0
    vertex 7.999999999999999 14.000000000000002 0.0
    vertex 5.000000000000001 9.0 0.0
  endloop
endfacet
facet normal 0.0 0.0 -1.0
  outer loop
    vertex 5.000000000000001 9.0 0.0
    vertex 7.999999999999999 14.000000000000002 0.0
    vertex 6.0 9.0 0.0
  endloop
endfacet
facet normal 0.0 0.0 -1.0
  outer loop
    vertex 6.0 9.0 0.0
    vertex 7.999999999999999 14.000000000000002 0.0
    vertex 6.0 -0.9999999999999999 0.0
  endloop
endfacet
facet normal 0.0 0.0 -1.0
  outer loop
    vertex 0.04894348370484655 -0.6909830056250525 0.0
    vertex 0.0 -3.0 0.0
    vertex 0.0 -0.9999999999999999 0.0
  endloop
endfacet
facet normal 0.0 0.0 -1.0
  outer loop
    vertex 0.0 -3.0 0.0
    vertex 0.04894348370484655 -0.6909830056250525 0.0
    vertex 0.9999999999999998 -0.9999999999999999 0.0
  endloop
endfacet
facet normal 0.0 0.0 -1.0
  outer loop
    vertex 0.0 -3.0 0.0
    vertex 0.9999999999999998 -0.9999999999999999 0.0
    vertex 7.999999999999999 -3.0 0.0
  endloop
endfacet
facet normal 0.0 0.0 -1.0
  outer loop
    vertex 0.9999999999999998 -0.9999999999999999 0.0
    vertex 0.04894348370484655 -0.6909830056250525 0.0
    vertex 0.1909830056250525 -0.41221474770752686 0.0
  endloop
endfacet
facet normal 0.0 0.0 -1.0
  outer loop
    vertex 0.9999999999999998 -0.9999999999999999 0.0
    vertex 0.1909830056250525 -0.41221474770752686 0.0
    vertex 0.41221474770752686 -0.1909830056250525 0.0
  endloop
endfacet
facet normal 0.0 0.0 -1.0
  outer loop
    vertex 0.9999999999999998 -0.9999999999999999 0.0
    vertex 0.41221474770752686 -0.1909830056250525 0.0
    vertex 0.6909830056250524 -0.04894348370484655 0.0
  endloop
endfacet
facet normal 0.0 0.0 -1.0
  outer loop
    vertex 0.9999999999999998 -0.9999999999999999 0.0
    vertex 0.6909830056250524 -0.04894348370484655 0.0
    vertex 0.9999999999999998 0.0 0.0
  endloop
endfacet
facet normal 0.0 0.0 -1.0
  outer loop
    vertex 7.999999999999999 -3.0 0.0
    vertex 0.9999999999999998 -0.9999999999999999 0.0
    vertex 6.0 -0.9999999999999999 0.0
  endloop
endfacet
facet normal 0.0 0.0 -1.0
  outer loop
    vertex 7.999999999999999 -3.0 0.0
    vertex 6.0 -0.9999999999999999 0.0
    vertex 7.999999999999999 14.000000000000002 0.0
  endloop
endfacet
facet normal 0.0 0.0 -1.0
  outer loop
    vertex 1.0242598623725907 11.0 0.0
    vertex 0.6909830056250525 11.048943483704846 0.0
    vertex 1.0242598623725907 12.0 0.0
  endloop
endfacet
facet normal 0.0 -1.0 0.0
  outer loop
    vertex 6.0 9.0 15.999999999999998
    vertex 5.000000000000001 9.0 0.0
    vertex 6.0 9.0 0.0
  endloop
endfacet
facet normal 0.0 -1.0 0.0
  outer loop
    vertex 5.000000000000001 9.0 0.0
    vertex 6.0 9.0 15.999999999999998
    vertex 5.000000000000001 9.0 15.999999999999998
  endloop
endfacet
facet normal -1.0 -0.0 -0.0
  outer loop
    vertex 5.000000000000001 12.0 15.999999999999998
    vertex 5.000000000000001 9.0 0.0
    vertex 5.000000000000001 9.0 15.999999999999998
  endloop
endfacet
facet normal -1.0 -0.0 -0.0
  outer loop
    vertex 5.000000000000001 9.0 0.0
    vertex 5.000000000000001 12.0 15.999999999999998
    vertex 5.000000000000001 12.0 0.0
  endloop
endfacet
endsolid Untitled-60d5a771
